<svg viewBox="0 0 600 320" xmlns="http://www.w3.org/2000/svg" role="img" aria-label="Mapa estilizado de la ubicación de EcoMarket">
  <rect width="600" height="320" fill="#EAF0E2"/>
  <path d="M0 60 H600 M0 140 H600 M0 220 H600" stroke="#D3DEC6" stroke-width="2"/>
  <path d="M80 0 V320 M260 0 V320 M420 0 V320 M540 0 V320" stroke="#D3DEC6" stroke-width="2"/>
  <path d="M0 180 C150 140 250 220 400 170 C480 145 540 190 600 160" fill="none" stroke="#9CC7A1" stroke-width="18" opacity="0.6"/>
  <rect x="150" y="90" width="70" height="50" fill="#C7B899"/>
  <rect x="320" y="60" width="55" height="70" fill="#C7B899"/>
  <rect x="420" y="120" width="60" height="45" fill="#C7B899"/>
  <g transform="translate(300,150)">
    <path d="M0 0 C-22 -25 -22 -55 0 -65 C22 -55 22 -25 0 0 Z" fill="#27ae60"/>
    <circle cx="0" cy="-45" r="10" fill="#fff"/>
  </g>
</svg>
