<svg viewBox="0 0 700 420" xmlns="http://www.w3.org/2000/svg" role="img" aria-label="Ilustración de productos de higiene reutilizables: cepillo, jabonera y jabón en barra">
  <rect width="700" height="420" fill="#cfe8cb"/>
  <rect x="0" y="260" width="700" height="160" fill="#a9d19a"/>
  <g transform="translate(120,240)">
    <rect x="0" y="0" width="150" height="18" rx="8" fill="#8a6538"/>
    <g stroke="#8a6538" stroke-width="7">
      <line x1="12" y1="18" x2="12" y2="55"/>
      <line x1="32" y1="18" x2="32" y2="55"/>
      <line x1="52" y1="18" x2="52" y2="55"/>
      <line x1="72" y1="18" x2="72" y2="55"/>
      <line x1="92" y1="18" x2="92" y2="55"/>
      <line x1="112" y1="18" x2="112" y2="55"/>
      <line x1="132" y1="18" x2="132" y2="55"/>
    </g>
  </g>
  <g transform="translate(340,220)">
    <ellipse cx="60" cy="90" rx="80" ry="16" fill="#ffffff" opacity="0.6"/>
    <rect x="10" y="10" width="100" height="55" rx="18" fill="#e6c068"/>
  </g>
  <g transform="translate(500,190)">
    <rect x="0" y="0" width="20" height="120" rx="8" fill="#cba064"/>
    <path d="M-6 0 C-6 -22 26 -22 26 0 Z" fill="#8a6538"/>
  </g>
</svg>
