<svg viewBox="0 0 1600 900" xmlns="http://www.w3.org/2000/svg" role="img" aria-label="Ilustración de campo verde sostenible">
  <defs>
    <linearGradient id="sky" x1="0" y1="0" x2="0" y2="1">
      <stop offset="0%" stop-color="#EAF4E6"/>
      <stop offset="100%" stop-color="#CFE8CB"/>
    </linearGradient>
    <linearGradient id="hillA" x1="0" y1="0" x2="0" y2="1">
      <stop offset="0%" stop-color="#3E8E5A"/>
      <stop offset="100%" stop-color="#27633F"/>
    </linearGradient>
    <linearGradient id="hillB" x1="0" y1="0" x2="0" y2="1">
      <stop offset="0%" stop-color="#59A66E"/>
      <stop offset="100%" stop-color="#357A4D"/>
    </linearGradient>
  </defs>
  <rect width="1600" height="900" fill="url(#sky)"/>
  <circle cx="1300" cy="180" r="110" fill="#F3D9A4" opacity="0.85"/>
  <path d="M0 620 C 250 520, 450 560, 700 600 C 950 640, 1150 560, 1600 610 L1600 900 L0 900 Z" fill="url(#hillA)"/>
  <path d="M0 700 C 300 640, 600 720, 900 680 C 1150 650, 1350 720, 1600 690 L1600 900 L0 900 Z" fill="url(#hillB)"/>
  <g opacity="0.9">
    <path d="M180 780 q20 -60 60 -80 q-10 55 -30 90 Z" fill="#1F5A38"/>
    <path d="M180 780 q-20 -50 -60 -65 q15 50 40 80 Z" fill="#1F5A38"/>
    <path d="M420 800 q20 -60 60 -80 q-10 55 -30 90 Z" fill="#1F5A38"/>
    <path d="M420 800 q-20 -50 -60 -65 q15 50 40 80 Z" fill="#1F5A38"/>
    <path d="M900 790 q20 -60 60 -80 q-10 55 -30 90 Z" fill="#1F5A38"/>
    <path d="M900 790 q-20 -50 -60 -65 q15 50 40 80 Z" fill="#1F5A38"/>
    <path d="M1250 800 q20 -60 60 -80 q-10 55 -30 90 Z" fill="#1F5A38"/>
    <path d="M1250 800 q-20 -50 -60 -65 q15 50 40 80 Z" fill="#1F5A38"/>
  </g>
</svg>
